<svg width="50" height="50" xmlns="http://www.w3.org/2000/svg">
 <style type="text/css">.st0{fill:#dddddd}</style>

 <g>
  <title>background</title>
  <rect fill="none" id="canvas_background" height="52" width="52" y="-1" x="-1"/>
 </g>
 <g>
  <title>Layer 1</title>
  <g stroke="null" id="XMLID_2_">
   <path stroke="null" d="m35.475417,27.642468l0,8.162558c0,0.29863 -0.101888,0.547489 -0.305664,0.746575s-0.458497,0.29863 -0.764161,0.29863l-6.673675,0l0,-6.47032l-4.432135,0l0,6.520092l-6.724619,0c-0.305664,0 -0.560385,-0.099543 -0.764161,-0.29863c-0.203776,-0.199087 -0.305664,-0.447945 -0.305664,-0.746575l0,-8.21233c0,0 0,-0.049772 0,-0.049772s0,-0.049772 0,-0.049772l9.98504,-8.013243l9.98504,8.063015c0,0 0,0 0,0.049772zm3.922694,-1.144749l-1.069826,1.244292c-0.101888,0.099543 -0.203776,0.149315 -0.356609,0.199087l-0.050944,0c-0.152832,0 -0.25472,-0.049772 -0.356609,-0.099543l-12.073747,-9.854796l-12.022803,9.805024c-0.152832,0.099543 -0.25472,0.149315 -0.407553,0.099543c-0.152832,0 -0.25472,-0.099543 -0.356609,-0.199087l-1.12077,-1.194521c-0.101888,-0.099543 -0.152832,-0.248858 -0.101888,-0.398174c0,-0.149315 0.050944,-0.29863 0.203776,-0.348402l12.4813,-10.203197c0.356609,-0.29863 0.815105,-0.447945 1.324546,-0.447945s0.967938,0.149315 1.324546,0.447945l4.228359,3.484019l0,-3.334704c0,-0.149315 0.050944,-0.29863 0.152832,-0.398174c0.101888,-0.099543 0.25472,-0.149315 0.407553,-0.149315l3.311365,0c0.152832,0 0.305664,0.049772 0.407553,0.149315c0.101888,0.099543 0.152832,0.248858 0.152832,0.398174l0,6.918266l3.820806,3.085845c0.101888,0.099543 0.203776,0.199087 0.203776,0.348402s-0.050944,0.29863 -0.101888,0.447945z" class="st0" id="XMLID_6_"/>
  </g>
 </g>
</svg>